<svg width="32" height="32" viewBox="0 0 100 100" xmlns="http://www.w3.org/2000/svg">
  <defs>
    <linearGradient id="ghostGrad" x1="0%" y1="0%" x2="100%" y2="100%">
      <stop offset="0%" stop-color="#c084fc" />
      <stop offset="50%" stop-color="#818cf8" />
      <stop offset="100%" stop-color="#22d3ee" />
    </linearGradient>
    <radialGradient id="eyeGlow" cx="50%" cy="50%" r="50%">
      <stop offset="0%" stop-color="#22d3ee" />
      <stop offset="100%" stop-color="#0891b2" />
    </radialGradient>
  </defs>
  
  <!-- Ghost body -->
  <path
    d="M50 5C25 5 10 25 10 50C10 75 10 95 10 95L25 85L40 95L50 85L60 95L75 85L90 95C90 95 90 75 90 50C90 25 75 5 50 5Z"
    fill="url(#ghostGrad)"
  />
  
  <!-- Left eye -->
  <ellipse cx="35" cy="42" rx="8" ry="10" fill="#1e1b4b" />
  <ellipse cx="35" cy="42" rx="5" ry="7" fill="url(#eyeGlow)" />
  <ellipse cx="33" cy="40" rx="2" ry="3" fill="white" opacity="0.8" />
  
  <!-- Right eye -->
  <ellipse cx="65" cy="42" rx="8" ry="10" fill="#1e1b4b" />
  <ellipse cx="65" cy="42" rx="5" ry="7" fill="url(#eyeGlow)" />
  <ellipse cx="63" cy="40" rx="2" ry="3" fill="white" opacity="0.8" />
  
  <!-- Smile -->
  <path d="M38 58 Q50 66 62 58" stroke="#1e1b4b" stroke-width="3" stroke-linecap="round" fill="none" />
</svg>
